<svg xmlns="http://www.w3.org/2000/svg" viewBox="0 0 320 240" width="320" height="240">
  <g transform="translate(160 120) scale(0.78) translate(-160 -120)">
    <path d="M96 60h128a20 20 0 0 1 20 20v56a20 20 0 0 1-20 20h-52l-36 28v-28H96a20 20 0 0 1-20-20V80a20 20 0 0 1 20-20z" fill="#253746"/>
    <circle cx="128" cy="108" r="11" fill="#ffffff"/>
    <circle cx="160" cy="108" r="11" fill="#ffffff"/>
    <circle cx="192" cy="108" r="11" fill="#ffffff"/>
    <path d="M244 36c2.6 14.7 7.7 19.8 22.4 22.4-14.7 2.6-19.8 7.7-22.4 22.4-2.6-14.7-7.7-19.8-22.4-22.4 14.7-2.6 19.8-7.7 22.4-22.4z" fill="#0063ae"/>
  </g>
</svg>
