<svg xmlns="http://www.w3.org/2000/svg" width="1280" height="44" viewBox="0 0 1280 44" preserveAspectRatio="none" fill="none"><g transform="translate(0 -90.002) scale(1 1)"><g id="f72_Group">
<path id="f72_Fill-1" fill-rule="evenodd" clip-rule="evenodd" d="M0 0V136H68.6246L129.778 0H0Z" fill="#FCB912"/>
<path id="f72_Fill-2" fill-rule="evenodd" clip-rule="evenodd" d="M129.685 0L68.4444 136H180.537L241.778 0H129.685Z" fill="#F68F1E"/>
<path id="f72_Fill-3" fill-rule="evenodd" clip-rule="evenodd" d="M239.599 0L173.333 136H294.625L360.889 0H239.599Z" fill="#B5C427"/>
<path id="f72_Fill-4" fill-rule="evenodd" clip-rule="evenodd" d="M354.573 0L293.333 136H405.425L466.667 0H354.573Z" fill="#57B847"/>
<path id="f72_Fill-5" fill-rule="evenodd" clip-rule="evenodd" d="M466.888 0L405.333 136H518.001L579.556 0H466.888Z" fill="#57C4CA"/>
<path id="f72_Fill-6" fill-rule="evenodd" clip-rule="evenodd" d="M581.4 0L517.333 136H634.599L698.667 0H581.4Z" fill="#00A8B6"/>
<path id="f72_Fill-7" fill-rule="evenodd" clip-rule="evenodd" d="M691.463 0L630.222 136H742.315L803.556 0H691.463Z" fill="#00BAEE"/>
<path id="f72_Fill-8" fill-rule="evenodd" clip-rule="evenodd" d="M802.266 0L736 136H857.292L923.556 0H802.266Z" fill="#0098D8"/>
<path id="f72_Fill-9" fill-rule="evenodd" clip-rule="evenodd" d="M916.351 0L855.111 136H967.205L1028.44 0H916.351Z" fill="#E170AA"/>
<path id="f72_Fill-10" fill-rule="evenodd" clip-rule="evenodd" d="M1027.15 0L960.889 136H1082.18L1148.44 0H1027.15Z" fill="#D30E8B"/>
<path id="f72_Fill-11" fill-rule="evenodd" clip-rule="evenodd" d="M1141.24 0L1080 136H1192.09L1253.33 0H1141.24Z" fill="#9E98C8"/>
<path id="f72_Fill-12" fill-rule="evenodd" clip-rule="evenodd" d="M1252.54 0L1191.11 136H1280V0H1252.54Z" fill="#6B54A2"/>
</g></g></svg>
